<?xml version="1.0" standalone="no"?><!DOCTYPE svg PUBLIC "-//W3C//DTD SVG 1.1//EN" "http://www.w3.org/Graphics/SVG/1.1/DTD/svg11.dtd"><svg t="1541397655675" class="icon" style="" viewBox="0 0 1024 1024" version="1.1" xmlns="http://www.w3.org/2000/svg" p-id="6631" xmlns:xlink="http://www.w3.org/1999/xlink" width="200" height="200"><defs><style type="text/css"></style></defs><path d="M883.709544 243.654315 740.063891 387.299969 634.727318 281.963397 778.372972 138.317743C798.109717 118.580998 795.048297 83.46773 775.75028 64.169714 756.48797 44.907404 721.338996 41.810277 701.602251 61.547022L557.956597 205.192676 468.688316 115.924395 360.049254 224.563457C256.197465 328.415245 258.822511 504.326762 315.68806 601.002654L59.888409 856.802309 150.942055 947.855955 406.741708 692.056302C517.700527 763.204778 677.543752 749.761533 781.395541 645.909744L890.034603 537.270682 816.834612 464.070691 960.480266 320.425037C980.217012 300.68829 975.405933 263.825366 956.141837 244.561271 936.850963 225.270396 901.339158 226.024702 883.709544 243.654315L883.709544 243.654315Z" p-id="6632"></path></svg>