<?xml version="1.0" standalone="no"?><!DOCTYPE svg PUBLIC "-//W3C//DTD SVG 1.1//EN" "http://www.w3.org/Graphics/SVG/1.1/DTD/svg11.dtd"><svg t="1541397642812" class="icon" style="" viewBox="0 0 1024 1024" version="1.1" xmlns="http://www.w3.org/2000/svg" p-id="5851" xmlns:xlink="http://www.w3.org/1999/xlink" width="200" height="200"><defs><style type="text/css"></style></defs><path d="M806.684444 77.368889c20.48 18.204444 36.778667 33.564444 48.924445 46.08 12.145778 12.515556 21.418667 23.125333 27.875555 31.857778 6.456889 8.732444 10.439111 16.128 11.946667 22.186666 1.507556 6.058667 2.275556 11.377778 2.275556 15.928889v18.204445h-167.253334c-8.334222 0-15.36-2.844444-21.048889-8.533334a75.946667 75.946667 0 0 1-14.222222-19.911111 107.946667 107.946667 0 0 1-8.533333-23.324444 89.031111 89.031111 0 0 1-2.844445-19.911111V0h2.275556c6.826667 0 13.283556 0.768 19.342222 2.275556 6.058667 1.507556 13.454222 5.12 22.186667 10.808888 8.732444 5.688889 19.342222 13.653333 31.857778 23.893334 12.515556 10.24 28.245333 23.694222 47.217777 40.391111zM612.124444 142.222222c0 14.421333 2.275556 29.952 6.826667 46.648889 4.551111 16.696889 11.747556 32.056889 21.617778 46.08 9.870222 14.023111 22.385778 25.799111 37.546667 35.271111 15.160889 9.472 32.995556 14.222222 53.475555 14.222222h166.115556v570.026667c0 21.987556-4.352 41.728-13.084445 59.164445a144.384 144.384 0 0 1-34.702222 44.942222c-14.421333 12.515556-30.350222 22.186667-47.786667 29.013333a139.946667 139.946667 0 0 1-51.2 10.24H260.551111c-14.421333 0-30.151111-4.181333-47.217778-12.515555-17.066667-8.334222-32.995556-19.342222-47.786666-32.995556a186.993778 186.993778 0 0 1-36.977778-47.217778A112.611556 112.611556 0 0 1 113.777778 849.92V146.773333C113.777778 130.844444 117.560889 114.147556 125.155556 96.711111a175.701333 175.701333 0 0 1 30.151111-47.217778C167.822222 35.470222 182.044444 23.694222 197.973333 14.222222A96.426667 96.426667 0 0 1 248.035556 0h364.088888v142.222222z m-91.022222 513.137778c9.102222-9.102222 14.023111-21.248 14.791111-36.408889 0.768-15.160889-3.413333-26.936889-12.515555-35.271111l-186.595556-187.733333c-9.102222-9.102222-20.280889-13.653333-33.564444-13.653334-13.283556 0-24.462222 4.551111-33.564445 13.653334A49.493333 49.493333 0 0 0 256 430.648889c0 13.283556 4.551111 24.462222 13.653333 33.564444l152.462223 154.737778-152.462223 153.6c-9.102222 9.102222-13.653333 20.280889-13.653333 33.564445 0 13.283556 4.551111 24.832 13.653333 34.702222 9.102222 9.102222 20.280889 13.653333 33.564445 13.653333 13.283556 0 24.462222-4.551111 33.564444-13.653333l184.32-185.457778z m233.244445 126.293333H540.444444V853.333333h213.902223v-71.68z" fill="#566E78" p-id="5852"></path></svg>