<?xml version="1.0" standalone="no"?><!DOCTYPE svg PUBLIC "-//W3C//DTD SVG 1.1//EN" "http://www.w3.org/Graphics/SVG/1.1/DTD/svg11.dtd"><svg t="1541483495098" class="icon" style="" viewBox="0 0 1024 1024" version="1.1" xmlns="http://www.w3.org/2000/svg" p-id="1736" xmlns:xlink="http://www.w3.org/1999/xlink" width="200" height="200"><defs><style type="text/css"></style></defs><path d="M890.88 0H133.12C56.32 0 0 56.32 0 133.12v762.88C0 967.68 56.32 1024 133.12 1024h537.6c25.6 0 40.96-20.48 40.96-40.96 0-25.6-20.48-40.96-40.96-40.96H133.12c-25.6 0-46.08-20.48-46.08-46.08v-107.52l194.56-163.84c15.36-10.24 35.84-15.36 51.2-10.24l189.44 81.92c46.08 20.48 107.52 10.24 143.36-25.6l266.24-240.64v215.04c0 25.6 20.48 40.96 40.96 40.96s40.96-20.48 40.96-40.96v-512C1024 56.32 967.68 0 890.88 0z m46.08 322.56L614.4 609.28c-15.36 15.36-35.84 15.36-56.32 10.24l-189.44-81.92c-46.08-20.48-102.4-10.24-143.36 20.48l-143.36 117.76V133.12c0-25.6 20.48-46.08 46.08-46.08h762.88c25.6 0 46.08 20.48 46.08 46.08v189.44z" p-id="1737"></path><path d="M885.76 701.44c-15.36-15.36-46.08-15.36-61.44 0l-122.88 122.88c-15.36 15.36-15.36 46.08 0 61.44 10.24 10.24 20.48 10.24 30.72 10.24s20.48-5.12 30.72-10.24l46.08-46.08v143.36c0 25.6 20.48 40.96 40.96 40.96 25.6 0 40.96-20.48 40.96-40.96v-143.36l46.08 46.08c10.24 10.24 20.48 10.24 30.72 10.24 10.24 0 20.48-5.12 30.72-10.24 15.36-15.36 15.36-46.08 0-61.44l-112.64-122.88zM343.04 168.96c-71.68 0-128 56.32-128 128s56.32 128 128 128 128-56.32 128-128c0-66.56-61.44-128-128-128z m0 174.08c-25.6 0-40.96-20.48-40.96-40.96s15.36-46.08 40.96-46.08 40.96 20.48 40.96 40.96-20.48 46.08-40.96 46.08z" p-id="1738"></path></svg>