<?xml version="1.0" standalone="no"?><!DOCTYPE svg PUBLIC "-//W3C//DTD SVG 1.1//EN" "http://www.w3.org/Graphics/SVG/1.1/DTD/svg11.dtd"><svg t="1541388304392" class="icon" style="" viewBox="0 0 1024 1024" version="1.1" xmlns="http://www.w3.org/2000/svg" p-id="2113" xmlns:xlink="http://www.w3.org/1999/xlink" width="200" height="200"><defs><style type="text/css"></style></defs><path d="M832 128h-640c-52.736 0-96.256 43.008-96.256 96.256v512l-0.512 96.256-0.512 81.408c0 1.536 2.048 4.096 4.096 5.632 6.656 4.096 10.24 4.096 17.408 4.096 8.192 0 15.872-4.096 23.552-9.728l117.248-81.408h574.464c52.736 0 96.256-43.008 96.256-96.256v-512c0-53.248-43.008-96.256-95.744-96.256zM278.528 416.768c-14.336-1.024-26.112-11.776-28.672-26.112-3.584-20.48 12.8-38.912 33.792-37.376 14.336 1.024 26.112 11.776 28.672 26.112 4.096 20.48-12.288 38.912-33.792 37.376z m0 188.928c-14.336-1.024-26.112-11.776-28.672-26.112-3.584-20.48 12.8-38.912 33.792-37.376 14.336 1.024 26.112 11.776 28.672 26.112 4.096 20.992-12.288 39.424-33.792 37.376z m461.312-195.072H404.48c-17.408 0-31.744-12.8-31.744-28.672S386.56 353.28 404.48 353.28h335.36c17.408 0 31.744 12.8 31.744 28.672s-13.824 28.672-31.744 28.672z m0 193.024H404.48c-17.408 0-31.744-12.8-31.744-28.672s13.824-28.672 31.744-28.672h335.36c17.408 0 31.744 12.8 31.744 28.672s-13.824 28.672-31.744 28.672z" p-id="2114"></path></svg>