<?xml version="1.0" standalone="no"?><!DOCTYPE svg PUBLIC "-//W3C//DTD SVG 1.1//EN" "http://www.w3.org/Graphics/SVG/1.1/DTD/svg11.dtd"><svg t="1541389372790" class="icon" style="" viewBox="0 0 1024 1024" version="1.1" xmlns="http://www.w3.org/2000/svg" p-id="4902" xmlns:xlink="http://www.w3.org/1999/xlink" width="200" height="200"><defs><style type="text/css"></style></defs><path d="M810.666667 170.666667H213.333333c-46.933333 0-85.333333 37.034667-85.333333 82.346666v517.973334C128 816.298667 166.4 853.333333 213.333333 853.333333h597.333334c46.933333 0 85.333333-37.034667 85.333333-82.346666V253.013333C896 207.701333 857.6 170.666667 810.666667 170.666667zM316.8 267.050667c43.050667 0 77.952 33.664 77.952 75.178666 0 41.557333-34.901333 75.221333-77.952 75.221334-43.093333 0-77.994667-33.664-77.994667-75.221334 0-41.514667 34.901333-75.178667 77.994667-75.178666zM213.333333 729.856l149.333334-191.146667 106.666666 123.52 149.333334-185.258666 192 252.885333H213.333333z" fill="#4A4A4A" p-id="4903"></path></svg>